<?xml version="1.0" encoding="UTF-8" standalone="no"?>
<svg
   width="24px"
   height="24px"
   viewBox="0 0 24 24"
   stroke-width="1.5"
   fill="none"
   color="#000000"
   version="1.1"
   id="svg3"
   sodipodi:docname="at-sign.svg"
   inkscape:version="1.3.2 (091e20e, 2023-11-25, custom)"
   xmlns:inkscape="http://www.inkscape.org/namespaces/inkscape"
   xmlns:sodipodi="http://sodipodi.sourceforge.net/DTD/sodipodi-0.dtd"
   xmlns="http://www.w3.org/2000/svg"
   xmlns:svg="http://www.w3.org/2000/svg">
  <defs
     id="defs3" />
  <sodipodi:namedview
     id="namedview3"
     pagecolor="#ffffff"
     bordercolor="#000000"
     borderopacity="0.25"
     inkscape:showpageshadow="2"
     inkscape:pageopacity="0.0"
     inkscape:pagecheckerboard="0"
     inkscape:deskcolor="#d1d1d1"
     inkscape:zoom="6.2976698"
     inkscape:cx="7.3836835"
     inkscape:cy="17.069806"
     inkscape:window-width="1920"
     inkscape:window-height="1111"
     inkscape:window-x="-9"
     inkscape:window-y="-9"
     inkscape:window-maximized="1"
     inkscape:current-layer="svg3" />
  <path
     d="m 17.5,19.759656 c -1.5209,1.1758 -3.4288,1.8755 -5.5,1.8755 -4.97056,0 -9,-4.0294 -9,-9 0,-4.9705604 4.02944,-9.0000004 9,-9.0000004 4.9706,0 9,4.02944 9,9.0000004 0,5.5 -6,5.5 -6,2 0,-2 0,-6.0000004 0,-6.0000004"
     stroke="#000000"
     stroke-width="1.5"
     stroke-linecap="round"
     stroke-linejoin="round"
     id="path1"
     style="stroke:#333333;stroke-opacity:1" />
  <path
     d="m 15,12.635156 v -1.5 c 0,-1.3807104 -1.3431,-2.5000004 -3,-2.5000004 -1.6569,0 -3,1.11929 -3,2.5000004 v 1.5"
     stroke="#000000"
     stroke-width="1.5"
     stroke-linecap="round"
     stroke-linejoin="round"
     id="path2"
     style="stroke:#333333;stroke-opacity:1" />
  <path
     d="m 15,12.635156 v 1.5 c 0,1.3807 -1.3431,2.5 -3,2.5 -1.6569,0 -3,-1.1193 -3,-2.5 v -1.5"
     stroke="#000000"
     stroke-width="1.5"
     stroke-linecap="round"
     stroke-linejoin="round"
     id="path3"
     style="stroke:#333333;stroke-opacity:1" />
</svg>
