<?xml version="1.0" encoding="UTF-8" standalone="no"?>
<svg
   width="24px"
   height="24px"
   stroke-width="1.5"
   viewBox="0 0 24 24"
   fill="none"
   color="#000000"
   version="1.1"
   id="svg1"
   sodipodi:docname="lock.svg"
   inkscape:version="1.3.2 (091e20e, 2023-11-25, custom)"
   xmlns:inkscape="http://www.inkscape.org/namespaces/inkscape"
   xmlns:sodipodi="http://sodipodi.sourceforge.net/DTD/sodipodi-0.dtd"
   xmlns="http://www.w3.org/2000/svg"
   xmlns:svg="http://www.w3.org/2000/svg">
  <defs
     id="defs1" />
  <sodipodi:namedview
     id="namedview1"
     pagecolor="#ffffff"
     bordercolor="#000000"
     borderopacity="0.25"
     inkscape:showpageshadow="2"
     inkscape:pageopacity="0.0"
     inkscape:pagecheckerboard="0"
     inkscape:deskcolor="#d1d1d1"
     inkscape:zoom="8.90625"
     inkscape:cx="-24.926316"
     inkscape:cy="16.561403"
     inkscape:window-width="1920"
     inkscape:window-height="1111"
     inkscape:window-x="-9"
     inkscape:window-y="-9"
     inkscape:window-maximized="1"
     inkscape:current-layer="svg1" />
  <path
     d="m 16.15518,11.719298 h 1.395365 c 0.330303,0 0.451826,0.315913 0.598014,0.6343 1.100242,2.396244 0.587048,4.792487 0,7.188731 -0.08337,0.340282 -0.288162,0.51988 -0.598014,0.6343 -3.588083,1.324988 -7.176166,0.90345 -10.7642482,0 -0.3202764,-0.08064 -0.4958275,-0.299189 -0.5980138,-0.6343 -0.7058568,-2.314799 -1.2112118,-4.652732 0,-7.188731 0.1509901,-0.316139 0.2677408,-0.6343 0.5980138,-0.6343 h 1.3953656 m 7.9735176,0 V 7.4906328 c 0,-1.4095516 -0.797352,-4.2286655 -3.986759,-4.2286655 -3.1894069,0 -3.9867586,2.8191139 -3.9867586,4.2286655 v 4.2286652 m 7.9735176,0 H 8.1816624"
     stroke="#000000"
     stroke-width="1.53972"
     stroke-linecap="round"
     stroke-linejoin="round"
     id="path1"
     sodipodi:nodetypes="cssssssssccsssccc"
     style="stroke:#333333;stroke-width:1.269;stroke-dasharray:none;stroke-opacity:1" />
  <path
     style="fill:#990099;fill-opacity:0.601695;stroke:#333333;stroke-width:0.434646"
     d="m 14.231578,14.764912 c -0.481502,-0.904773 -2.029936,0.815092 -1.71228,0.224562 0.490263,-0.911411 0.662797,-0.991277 1.122807,-1.235088 0.555327,-0.104432 1.203795,-0.258887 1.852631,0.308771 0.140414,0.746866 -0.07308,0.99092 -0.477193,1.431578 -1.843274,1.583901 -3.686549,2.561834 -5.5298237,3.733335 -0.2584693,0.111162 -0.4865409,0.374313 -0.8140351,0.140351 -0.055607,-0.243275 0.046463,-0.48655 0.3649123,-0.729825 1.4720995,-1.263286 4.3276505,-2.64121 5.1929815,-3.873684 z"
     id="path2"
     sodipodi:nodetypes="cscccccccc" />
</svg>
