<?xml version="1.0" encoding="UTF-8" standalone="no"?>
<svg
   width="24px"
   height="24px"
   stroke-width="1.5"
   viewBox="0 0 24 24"
   fill="none"
   color="#000000"
   version="1.1"
   id="svg1"
   sodipodi:docname="lock2.svg"
   inkscape:version="1.3.2 (091e20e, 2023-11-25, custom)"
   xmlns:inkscape="http://www.inkscape.org/namespaces/inkscape"
   xmlns:sodipodi="http://sodipodi.sourceforge.net/DTD/sodipodi-0.dtd"
   xmlns="http://www.w3.org/2000/svg"
   xmlns:svg="http://www.w3.org/2000/svg">
  <defs
     id="defs1" />
  <sodipodi:namedview
     id="namedview1"
     pagecolor="#ffffff"
     bordercolor="#000000"
     borderopacity="0.25"
     inkscape:showpageshadow="2"
     inkscape:pageopacity="0.0"
     inkscape:pagecheckerboard="0"
     inkscape:deskcolor="#d1d1d1"
     inkscape:zoom="35.625"
     inkscape:cx="11.985965"
     inkscape:cy="11.985965"
     inkscape:window-width="1920"
     inkscape:window-height="1111"
     inkscape:window-x="-9"
     inkscape:window-y="-9"
     inkscape:window-maximized="1"
     inkscape:current-layer="svg1" />
  <path
     d="m 15.715674,12.38754 h 1.165193 c 0.275818,0 0.377295,0.256814 0.499369,0.515639 0.918751,1.947972 0.490211,3.895942 0,5.843913 -0.06962,0.276625 -0.240629,0.422625 -0.499369,0.51564 -2.996211,1.077118 -5.992423,0.734439 -8.9886334,0 -0.2674453,-0.06555 -0.4140384,-0.243219 -0.4993685,-0.51564 -0.5894223,-1.881762 -1.0114165,-3.782331 0,-5.843913 0.1260835,-0.256997 0.2235756,-0.515639 0.4993685,-0.515639 h 1.1651932 m 6.6582472,0 V 8.9499446 c 0,-1.1458625 -0.665824,-3.4375961 -3.329123,-3.4375961 -2.6632996,0 -3.3291242,2.2917336 -3.3291242,3.4375961 V 12.38754 m 6.6582472,0 H 9.0574268"
     stroke="#000000"
     stroke-width="1.26859"
     stroke-linecap="round"
     stroke-linejoin="round"
     id="path1"
     sodipodi:nodetypes="cssssssssccsssccc"
     style="stroke:#333333;stroke-opacity:1" />
  <path
     style="fill:#990099;fill-opacity:0.601695;stroke:#333333;stroke-width:0.35811"
     d="m 14.10938,14.863402 c -0.402076,-0.735515 -1.695088,0.66261 -1.429831,0.182552 0.409392,-0.740911 0.553465,-0.805836 0.937594,-1.004036 0.463724,-0.0849 1.005224,-0.210456 1.547031,0.251008 0.117252,0.607147 -0.06102,0.805546 -0.398478,1.163768 -1.539217,1.287596 -3.078434,2.082584 -4.617653,3.034929 -0.2158333,0.09037 -0.4062834,0.304289 -0.6797558,0.114095 -0.046434,-0.197765 0.038799,-0.39553 0.3047182,-0.593294 1.2292696,-1.02696 3.6137846,-2.147111 4.3363746,-3.149022 z"
     id="path2"
     sodipodi:nodetypes="cscccccccc" />
  <path
     sodipodi:type="spiral"
     style="fill:none;fill-rule:evenodd;stroke:#333333;stroke-width:0.81144;stroke-dasharray:none;stroke-opacity:1"
     id="path3"
     sodipodi:cx="20.463158"
     sodipodi:cy="19.340351"
     sodipodi:expansion="1"
     sodipodi:revolution="3"
     sodipodi:radius="8.9362411"
     sodipodi:argument="-20.373217"
     sodipodi:t0="0.75305122"
     d="m 27.15579,20.043302 c -0.134078,3.905479 -3.630886,6.889098 -7.473372,6.730294 -4.308882,-0.17808 -7.592961,-4.045727 -7.393118,-8.291774 0.212427,-4.513397 4.129001,-8.041588 8.594917,-8.067787"
     transform="matrix(1.3227216,0,0,1.2374908,-13.928889,-10.227137)" />
  <path
     style="fill:#333333;fill-opacity:1;stroke:#333333;stroke-width:0.730262;stroke-dasharray:none"
     d="m 13.40502,1.2254287 0.0438,2.839579 2.693767,-1.4965349 z"
     id="path4" />
</svg>
